{"title":"Mike Candys &amp; Evelyn Ft. Patrick Miller - One Night In Ibiza","uid":8472436,"size":50182867,"categoryP":"video","categoryS":"music_videos","magnet":"?xt=urn:btih:0bc959f3889e511f4add1aac6d7b7051395bd3e8&amp;dn=Mike+Candys+%26amp%3B+Evelyn+Ft.+Patrick+Miller+-+One+Night+In+Ibiza&amp;tr=udp%3A%2F%2Ftracker.openbittorrent.com%3A80&amp;tr=udp%3A%2F%2Fopen.demonii.com%3A1337&amp;tr=udp%3A%2F%2Ftracker.coppersurfer.tk%3A6969&amp;tr=udp%3A%2F%2Fexodus.desync.com%3A6969","seeders":0,"leechers":1,"uploader":"Sbyky","files":-1,"time":1368519268,"description":"[IMG]http://www.shotpix.com/images/03824583824916923887.jpg[/IMG]\n\nGeneral\nComplete name                            : Mike Candys &amp; Evelyn Ft. Patrick Miller - One Night In Ibiza [Music Video] 720p [Sbyky].mp4\nFormat                                   : MPEG-4\nFormat profile                           : Base Media / Version 2\nCodec ID                                 : mp42\nFile size                                : 47.9 MiB\nDuration                                 : 2mn 48s\nOverall bit rate mode                    : Variable\nOverall bit rate                         : 2 386 Kbps\nEncoded date                             : UTC 2011-07-14 09:28:46\nTagged date                              : UTC 2011-07-14 09:28:46\n\nVideo\nID                                       : 1\nFormat                                   : AVC\nFormat/Info                              : Advanced Video Codec\nFormat profile                           : &lt;a class=&quot;__cf_email__&quot; href=&quot;/cdn-cgi/l/email-protection&quot; data-cfemail=&quot;eca4858b84aca0dfc2dd&quot;&gt;[email&amp;#160;protected]&lt;/a&gt;&lt;script data-cfhash='f9e31' type=&quot;text/javascript&quot;&gt;\n/* &lt;![CDATA[ */!function(){try{var t=&quot;currentScript&quot;in document?document.currentScript:function(){for(var t=document.getElementsByTagName(&quot;script&quot;),e=t.length;e--;)if(t[e].getAttribute(&quot;data-cfhash&quot;))return t[e]}();if(t&amp;&amp;t.previousSibling){var e,r,n,i,c=t.previousSibling,a=c.getAttribute(&quot;data-cfemail&quot;);if(a){for(e=&quot;&quot;,r=parseInt(a.substr(0,2),16),n=2;a.length-n;n+=2)i=parseInt(a.substr(n,2),16)^r,e+=String.fromCharCode(i);e=document.createTextNode(e),c.parentNode.replaceChild(e,c)}t.parentNode.removeChild(t);}}catch(u){}}()/* ]]&gt; */&lt;/script&gt;\nFormat settings, CABAC                   : Yes\nFormat settings, ReFrames                : 1 frame\nCodec ID                                 : avc1\nCodec ID/Info                            : Advanced Video Coding\nDuration                                 : 2mn 48s\nBit rate                                 : 2 235 Kbps\nMaximum bit rate                         : 4 779 Kbps\nWidth                                    : 1 280 pixels\nHeight                                   : 720 pixels\nDisplay aspect ratio                     : 16:9\nFrame rate mode                          : Constant\nFrame rate                               : 25.000 fps\nColor space                              : YUV\nChroma subsampling                       : 4:2:0\nBit depth                                : 8 bits\nScan type                                : Progressive\nBits/(Pixel*Frame)                       : 0.097\nStream size                              : 44.8 MiB (94%)\nTagged date                              : UTC 2011-07-14 09:28:47\n\nAudio\nID                                       : 2\nFormat                                   : AAC\nFormat/Info                              : Advanced Audio Codec\nFormat profile                           : LC\nCodec ID                                 : 40\nDuration                                 : 2mn 48s\nBit rate mode                            : Variable\nBit rate                                 : 144 Kbps\nMaximum bit rate                         : 224 Kbps\nChannel(s)                               : 2 channels\nChannel positions                        : Front: L R\nSampling rate                            : 44.1 KHz\nCompression mode                         : Lossy\nStream size                              : 2.93 MiB (6%)\nTitle                                    : IsoMedia File Produced by Google, 5-11-2011\nEncoded date                             : UTC 2011-07-14 09:28:47\nTagged date                              : UTC 2011-07-14 09:28:47\n\nShared By Sbyky\n[IMG]http://www.shotpix.com/images/76014917432015785852.gif[/IMG]\n[IMG]http://www.shotpix.com/images/54100788659511547411.gif[/IMG]","torrent":{"xt":"urn:btih:0bc959f3889e511f4add1aac6d7b7051395bd3e8","amp;dn":"Mike+Candys+%26amp%3B+Evelyn+Ft.+Patrick+Miller+-+One+Night+In+Ibiza","amp;tr":["udp%3A%2F%2Ftracker.openbittorrent.com%3A80","udp%3A%2F%2Fopen.demonii.com%3A1337","udp%3A%2F%2Ftracker.coppersurfer.tk%3A6969","udp%3A%2F%2Fexodus.desync.com%3A6969"],"infoHash":"0bc959f3889e511f4add1aac6d7b7051395bd3e8","infoHashBuffer":{"type":"Buffer","data":[11,201,89,243,136,158,81,31,74,221,26,172,109,123,112,81,57,91,211,232]},"announce":[],"urlList":[]}}